<?xml version="1.0" standalone="no"?>
<!DOCTYPE svg PUBLIC "-//W3C//DTD SVG 20010904//EN"
 "http://www.w3.org/TR/2001/REC-SVG-20010904/DTD/svg10.dtd">
<svg version="1.0" xmlns="http://www.w3.org/2000/svg"
 width="700.000000pt" height="700.000000pt" viewBox="0 0 700.000000 700.000000"
 preserveAspectRatio="xMidYMid meet">
<metadata>
Created by potrace 1.14, written by Peter Selinger 2001-2017
</metadata>
<g transform="translate(0.000000,700.000000) scale(0.100000,-0.100000)"
fill="#000000" stroke="none">
<path d="M3420 6985 c-19 -7 -132 -69 -250 -137 -118 -69 -321 -186 -450 -260
-358 -207 -665 -384 -880 -508 -107 -62 -215 -124 -240 -138 -25 -14 -74 -42
-109 -64 -34 -21 -65 -38 -67 -38 -3 0 -122 -69 -154 -90 -8 -6 -22 -13 -30
-17 -16 -8 -226 -127 -250 -143 -8 -5 -35 -21 -60 -35 -25 -14 -58 -33 -75
-43 -16 -9 -88 -51 -160 -92 -184 -105 -232 -154 -251 -255 -12 -67 -8 -3304
4 -3350 14 -48 55 -114 87 -137 24 -18 279 -168 375 -221 30 -16 66 -38 80
-47 14 -9 52 -31 85 -50 33 -18 74 -41 90 -50 54 -31 347 -201 505 -293 85
-49 175 -101 200 -115 25 -14 101 -58 170 -97 69 -40 141 -82 160 -93 19 -10
150 -86 290 -167 140 -81 275 -159 300 -173 25 -13 50 -28 55 -32 6 -4 30 -18
55 -32 25 -14 143 -82 263 -151 241 -140 292 -162 365 -154 77 8 41 -11 807
432 121 70 238 138 260 150 22 13 256 148 520 300 264 153 495 286 513 296
148 85 688 397 727 420 17 10 48 28 70 40 53 29 103 82 128 138 l22 46 0 1657
c1 1210 -2 1669 -10 1702 -23 89 -73 139 -215 218 -57 31 -468 269 -613 355
-59 34 -110 63 -113 63 -3 0 -18 8 -32 19 -15 10 -48 30 -73 43 -25 14 -178
102 -340 196 -162 93 -309 178 -328 188 -18 11 -41 24 -50 29 -9 6 -34 21 -56
33 -22 12 -58 33 -80 47 -22 14 -47 28 -55 32 -8 4 -37 20 -65 36 -27 16 -183
106 -345 200 -162 93 -351 202 -420 242 -69 40 -141 80 -160 90 -43 22 -152
28 -200 10z m178 -626 c94 -56 132 -78 202 -117 25 -14 57 -33 72 -43 14 -11
29 -19 32 -19 3 0 117 -65 253 -144 137 -79 340 -196 453 -261 113 -65 252
-146 310 -180 58 -34 128 -74 155 -89 28 -16 106 -61 175 -101 69 -40 148 -86
176 -101 28 -16 175 -101 327 -189 l277 -160 0 -1455 0 -1455 -33 -19 c-17
-10 -45 -26 -62 -36 -16 -9 -192 -111 -390 -225 -198 -114 -416 -240 -485
-280 -69 -40 -201 -116 -295 -170 -93 -54 -181 -105 -195 -113 -14 -8 -43 -25
-65 -38 -22 -13 -56 -32 -75 -42 -19 -10 -60 -34 -90 -52 -30 -18 -75 -44
-100 -58 -25 -14 -199 -115 -388 -224 l-344 -199 -114 66 c-63 36 -136 77
-162 92 -26 14 -51 29 -57 33 -5 4 -86 51 -180 105 -284 163 -489 282 -525
304 -19 11 -44 25 -55 31 -11 5 -41 22 -67 37 -52 32 -45 27 -493 286 -181
104 -410 236 -508 293 -98 57 -180 104 -181 104 -2 0 -43 24 -92 53 l-89 53 0
1455 0 1454 80 46 c44 25 341 197 660 381 319 184 636 368 705 408 69 40 141
81 160 92 93 54 354 203 620 357 162 94 296 171 298 171 2 0 42 -23 90 -51z"/>
<path d="M3899 4714 c-25 -7 -67 -32 -93 -55 -43 -38 -82 -112 -547 -1043
-473 -946 -500 -1004 -501 -1056 -2 -117 51 -208 147 -255 75 -37 146 -42 218
-15 107 40 88 7 631 1092 465 931 498 1001 501 1055 4 86 -20 148 -81 210 -76
77 -170 100 -275 67z"/>
<path d="M2163 4459 c-22 -4 -59 -17 -80 -28 -60 -30 -777 -750 -810 -813 -35
-67 -36 -161 -3 -231 34 -72 754 -790 825 -823 56 -27 146 -31 202 -11 138 51
211 201 168 344 -18 55 -30 70 -289 330 l-270 273 270 272 c257 260 271 276
288 331 24 78 13 179 -26 232 -22 30 -66 73 -90 88 -42 26 -137 44 -185 36z"/>
<path d="M4694 4437 c-100 -48 -157 -137 -157 -248 0 -110 14 -129 309 -425
l263 -264 -263 -263 c-287 -288 -307 -315 -309 -415 -1 -81 17 -132 64 -186
62 -70 108 -90 204 -91 58 0 91 5 120 19 55 26 795 766 821 821 28 60 26 176
-5 235 -33 65 -747 779 -810 811 -69 35 -170 37 -237 6z"/>
</g>
</svg>
